<svg width="25" height="24" viewBox="0 0 25 24" fill="none" xmlns="http://www.w3.org/2000/svg">
<path d="M13.55 4.14V4.08C13.55 3.8 13.64 3.55 13.82 3.33C14 3.11 14.23 3 14.51 3C14.79 3 15.04 3.09 15.26 3.27C15.48 3.45 15.6 3.69 15.62 3.99C15.64 4.29 15.55 4.54 15.35 4.74C15.15 4.94 14.91 5.04 14.63 5.04L14.45 5.1L14.51 5.19L14.45 5.52L14.33 6.48C14.37 6.52 14.39 6.56 14.39 6.6L14.27 7.2C14.23 7.28 14.19 7.34 14.15 7.38L14.09 7.62C14.01 7.94 13.94 8.2 13.88 8.4C13.82 8.6 13.77 8.76 13.73 8.88V9C13.69 9.2 13.66 9.36 13.64 9.48C13.62 9.6 13.55 9.8 13.43 10.08C13.35 10.24 13.35 10.5 13.43 10.86L13.49 10.92C13.49 11.04 13.54 11.18 13.64 11.34C13.74 11.5 13.79 11.64 13.79 11.76C13.83 12.56 13.77 13.24 13.61 13.8L13.73 14.16C14.21 14.4 14.35 14.66 14.15 14.94L14.45 15.06C14.93 15.3 15.27 15.51 15.47 15.69C15.67 15.87 15.87 16.06 16.07 16.26C16.23 16.3 16.35 16.36 16.43 16.44L16.61 16.5C17.45 17.06 18.29 17.74 19.13 18.54L19.37 18.72V18.78L19.31 18.9L19.49 19.02H19.55C19.67 19.1 19.75 19.14 19.79 19.14H19.85C19.89 19.14 19.93 19.12 19.97 19.08L20.09 19.02C20.17 18.94 20.25 18.88 20.33 18.84H20.57C20.61 18.84 20.61 18.86 20.57 18.9L20.33 19.02L20.03 19.38H20.45L20.87 19.44C20.99 19.4 21.09 19.36 21.17 19.32L21.47 19.14C21.59 19.1 21.71 19.14 21.83 19.26H21.89C21.93 19.3 21.91 19.36 21.83 19.44L21.11 20.1C20.91 20.26 20.73 20.36 20.57 20.4L19.79 20.94C19.75 20.98 19.71 20.98 19.67 20.94L19.49 20.7L19.37 20.46L19.22 20.25L19.04 20.01L18.89 19.83L18.77 19.68L18.53 19.5C18.45 19.5 18.37 19.48 18.29 19.44L17.51 18.84C17.39 18.84 17.25 18.78 17.09 18.66C16.49 18.14 16.09 17.82 15.89 17.7L15.53 17.46L14.81 17.34C14.57 17.3 14.25 17.18 13.85 16.98L13.37 16.74C13.05 16.58 12.83 16.5 12.71 16.5L12.47 16.38C12.31 16.34 12.19 16.3 12.11 16.26L11.99 16.14C11.91 16.14 11.83 16.16 11.75 16.2L10.55 16.8L9.05002 17.46C8.65002 17.78 8.27002 18.04 7.91002 18.24L7.25002 18.54L6.23002 19.26C6.15002 19.34 6.07002 19.34 5.99002 19.26L5.87002 19.38C5.75002 19.42 5.67002 19.44 5.63002 19.44L5.39002 19.56V19.68H5.27002L5.15002 19.86C5.07002 20.02 4.99002 20.11 4.91002 20.13C4.83002 20.15 4.78002 20.18 4.76002 20.22C4.74002 20.26 4.72002 20.29 4.70002 20.31L4.58002 20.43L4.40002 20.55L4.13002 20.52L3.77002 20.58L3.53002 20.64C3.33002 20.68 3.17002 20.65 3.05002 20.55C2.93002 20.45 2.83002 20.3 2.75002 20.1C2.67002 19.98 2.71002 19.88 2.87002 19.8L2.93002 19.74C2.97002 19.7 3.03002 19.68 3.11002 19.68H3.47002L3.95002 19.5L4.19002 19.44C4.19002 19.36 4.21002 19.3 4.25002 19.26C4.29002 19.22 4.35002 19.2 4.43002 19.2V19.14C4.39002 19.06 4.37002 18.98 4.37002 18.9C4.33002 18.82 4.32002 18.76 4.34002 18.72C4.36002 18.68 4.38002 18.66 4.40002 18.66H4.43002L4.49002 18.84C4.53002 19.04 4.59002 19.1 4.67002 19.02L4.73002 18.9C4.77002 18.82 4.83002 18.78 4.91002 18.78L5.03002 18.9L5.15002 18.78L5.09002 18.72C5.09002 18.68 5.11002 18.66 5.15002 18.66L5.39002 18.42C5.59002 18.18 5.83002 17.96 6.11002 17.76C6.67002 17.32 7.27002 16.98 7.91002 16.74C8.11002 16.54 8.33002 16.44 8.57002 16.44C8.73002 16.16 8.97002 15.86 9.29002 15.54C9.57002 15.34 9.77002 15.2 9.89002 15.12C9.97002 14.96 10.07 14.88 10.19 14.88H10.25L10.37 14.76C10.45 14.72 10.51 14.68 10.55 14.64V14.34C10.55 14.14 10.57 13.98 10.61 13.86C10.65 13.74 10.75 13.68 10.91 13.68L11.15 13.44C11.07 13.28 11.03 13.1 11.03 12.9H10.97C10.89 12.78 10.85 12.66 10.85 12.54C10.73 12.34 10.65 12.18 10.61 12.06H10.43C10.39 12.18 10.29 12.26 10.13 12.3L10.07 12.42C9.91002 12.7 9.77002 12.91 9.65002 13.05C9.53002 13.19 9.31002 13.36 8.99002 13.56C8.79002 13.76 8.65002 13.98 8.57002 14.22C8.53002 14.34 8.53002 14.46 8.57002 14.58L8.51002 14.7H8.57002C8.57002 14.78 8.59002 14.82 8.63002 14.82H8.69002C8.77002 14.86 8.81002 14.91 8.81002 14.97C8.81002 15.03 8.75002 15.05 8.63002 15.03C8.51002 15.01 8.42002 14.97 8.36002 14.91C8.30002 14.85 8.25002 14.82 8.21002 14.82L8.03002 15C7.95002 15.12 7.87002 15.17 7.79002 15.15C7.71002 15.13 7.69002 15.1 7.73002 15.06L7.79002 15C7.83002 14.92 7.83002 14.88 7.79002 14.88L7.31002 15C7.27002 15.04 7.22002 15.04 7.16002 15C7.10002 14.96 7.11002 14.92 7.19002 14.88L7.49002 14.76C7.49002 14.72 7.47002 14.7 7.43002 14.7C7.27002 14.78 7.11002 14.8 6.95002 14.76L6.65002 14.7L6.59002 14.64C6.59002 14.6 6.61002 14.58 6.65002 14.58C6.81002 14.62 7.01002 14.6 7.25002 14.52L7.67002 14.34L8.15002 13.8L8.21002 13.68C8.37002 13.36 8.54002 13.07 8.72002 12.81C8.90002 12.55 9.09002 12.34 9.29002 12.18L9.35002 11.94C9.43002 11.78 9.51002 11.64 9.59002 11.52C9.67002 11.4 9.77002 11.24 9.89002 11.04L10.07 10.8C10.23 10.56 10.41 10.44 10.61 10.44L10.79 10.26C10.83 10.22 10.85 10.16 10.85 10.08L10.97 9.96L10.91 9.9C10.67 9.7 10.55 9.52 10.55 9.36C10.51 9.08 10.6 8.84 10.82 8.64C11.04 8.44 11.26 8.35 11.48 8.37C11.7 8.39 11.87 8.46 11.99 8.58L12.11 8.7C12.15 8.7 12.17 8.72 12.17 8.76L12.41 8.88V9.06C12.49 9.14 12.53 9.2 12.53 9.24C12.61 9.12 12.73 8.98 12.89 8.82L13.19 7.86C13.19 7.7 13.23 7.54 13.31 7.38L13.43 7.2V7.08L13.61 6.36H13.73L13.91 5.64C13.95 5.52 13.95 5.38 13.91 5.22L13.67 4.62L13.55 4.14Z" fill="#111111"/>
</svg>
